<svg width="30" height="31" viewBox="0 0 30 31" fill="none" xmlns="http://www.w3.org/2000/svg">
<path fill-rule="evenodd" clip-rule="evenodd" d="M17.687 4.80058C18.548 4.43709 19.4709 4.25 20.4029 4.25C21.3349 4.25 22.2578 4.43709 23.1189 4.80058C23.9797 5.164 24.7619 5.69664 25.4207 6.36807C26.0797 7.03929 26.6029 7.83656 26.9596 8.71365C27.3164 9.5909 27.5 10.5312 27.5 11.4807C27.5 12.4303 27.3164 13.3706 26.9596 14.2478C26.6029 15.125 26.08 15.922 25.4209 16.5932C25.4208 16.5933 25.421 16.5932 25.4209 16.5932L15.7716 26.4243C15.3453 26.8586 14.6541 26.8586 14.2279 26.4243L4.57852 16.5932C3.24767 15.2373 2.5 13.3983 2.5 11.4807C2.5 9.56319 3.24767 7.72417 4.57852 6.36826C5.90938 5.01234 7.7144 4.25059 9.59651 4.25059C11.4786 4.25059 13.2837 5.01234 14.6145 6.36826L14.9997 6.76071L15.3847 6.36844C15.3847 6.3685 15.3848 6.36838 15.3847 6.36844C16.0436 5.69692 16.826 5.16403 17.687 4.80058ZM20.4029 6.47422C19.7577 6.47422 19.1187 6.60374 18.5226 6.85539C17.9265 7.10703 17.3849 7.47587 16.9288 7.94083L15.7716 9.11985C15.3453 9.55416 14.6541 9.55416 14.2279 9.11985L13.0708 7.94102C12.1494 7.00222 10.8996 6.47481 9.59651 6.47481C8.2934 6.47481 7.04365 7.00222 6.12221 7.94102C5.20077 8.87981 4.68311 10.1531 4.68311 11.4807C4.68311 12.8084 5.20077 14.0817 6.12221 15.0205L14.9997 24.0651L23.8772 15.0205C24.3336 14.5557 24.6958 14.0037 24.9428 13.3964C25.1898 12.7891 25.3169 12.1381 25.3169 11.4807C25.3169 10.8233 25.1898 10.1724 24.9428 9.56506C24.6958 8.95774 24.3337 8.40594 23.8774 7.9412C23.4212 7.47624 22.8793 7.10703 22.2832 6.85539C21.6871 6.60374 21.0481 6.47422 20.4029 6.47422Z" fill="#FF7348"/>
</svg>
