<svg width="18" height="14" viewBox="0 0 18 14" fill="none" xmlns="http://www.w3.org/2000/svg">
<path d="M8.9749 0.914139C5.79351 0.914139 3.21448 3.49387 3.21448 6.67613C3.21448 9.8584 5.79351 12.4381 8.9749 12.4381C12.1563 12.4381 14.7353 9.8584 14.7353 6.67613C14.7353 3.49387 12.1563 0.914139 8.9749 0.914139ZM8.97486 11.0482C6.56479 11.0482 4.60403 9.08691 4.60403 6.67617C4.60403 4.26543 6.56479 2.30413 8.97486 2.30413C11.3849 2.30413 13.3457 4.26543 13.3457 6.67617C13.3457 9.08691 11.385 11.0482 8.97486 11.0482Z" fill="white"/>
<path d="M8.97486 3.47603C7.21081 3.47603 5.77564 4.91159 5.77564 6.67613C5.77564 8.44067 7.21081 9.87624 8.97486 9.87624C10.7389 9.87624 12.1741 8.44067 12.1741 6.67613C12.1741 4.91159 10.739 3.47603 8.97486 3.47603Z" fill="white"/>
<path d="M17.0309 7.15925V0.157397C17.0309 0.0898416 16.9878 0.0297957 16.9238 0.00821723C16.8598 -0.0133273 16.7891 0.00845509 16.7483 0.0622823C15.8749 1.21437 15.4022 2.62054 15.4022 4.06636V6.62784C15.4022 6.92162 15.6403 7.1598 15.934 7.1598H16.1557C15.9372 9.41765 15.7927 12.5755 15.7927 12.9452C15.7927 13.5278 16.1512 14 16.5933 14C17.0355 14 17.3939 13.5277 17.3939 12.9452C17.3939 12.5754 17.2495 9.41711 17.0309 7.15925Z" fill="white"/>
<path d="M2.3243 5.7713C2.76737 5.50284 3.06351 5.01609 3.06351 4.46008L2.84405 0.87088C2.83565 0.734069 2.72229 0.6274 2.58524 0.6274C2.43702 0.6274 2.31893 0.751604 2.3263 0.899595L2.46902 3.77816C2.46902 3.93998 2.33785 4.07112 2.17614 4.07112C2.0144 4.07112 1.88327 3.93992 1.88327 3.77816L1.81196 0.900784C1.80819 0.748715 1.68388 0.627434 1.53179 0.627434C1.37969 0.627434 1.25542 0.748749 1.25162 0.900784L1.18031 3.77816C1.18031 3.93998 1.04914 4.07112 0.887431 4.07112C0.725687 4.07112 0.594553 3.93992 0.594553 3.77816L0.737272 0.899595C0.74461 0.751536 0.626454 0.6274 0.478333 0.6274C0.341288 0.6274 0.227922 0.734069 0.219565 0.87088L0 4.46011C0 5.01612 0.296105 5.50284 0.739209 5.77133C1.02757 5.94603 1.18833 6.27267 1.15116 6.60786C0.90102 8.86283 0.731157 12.5443 0.731157 12.9453C0.731157 13.5278 1.0896 14 1.53175 14C1.97391 14 2.33235 13.5278 2.33235 12.9453C2.33235 12.5443 2.16245 8.86283 1.91235 6.60786C1.87515 6.27284 2.03608 5.94593 2.3243 5.7713Z" fill="white"/>
</svg>
