<svg width="223" height="43" viewBox="0 0 223 43" fill="none" xmlns="http://www.w3.org/2000/svg">
<path d="M39.4711 13.5949C38.9819 12.5811 38.2606 11.6761 37.3438 10.9534L26.808 2.63554C24.0432 0.454414 20.1846 0.454414 17.4225 2.63554L6.88281 10.9534C5.04925 12.4014 4 14.5694 4 16.9014V29.9474C4 32.2794 5.05187 34.4474 6.87887 35.8862C8.22453 36.9538 9.84955 37.5204 11.5716 37.5204H27.6422L24.8171 33.7182H11.5716C10.7152 33.7182 9.90989 33.4401 9.23312 32.9063C8.3229 32.1863 7.8009 31.1108 7.8009 29.9488V16.9027C7.8009 15.7393 8.3229 14.6586 9.23574 13.9386L19.7754 5.61802C20.4614 5.07504 21.289 4.80617 22.1139 4.80617C22.9389 4.80617 23.7639 5.07504 24.4525 5.61802L34.9895 13.9386C35.9024 14.6586 36.4244 15.7393 36.4244 16.9027V29.9488C36.4244 30.6977 36.2067 31.4243 35.7896 32.0446C35.1771 32.9575 34.2131 33.549 33.1415 33.688L35.5561 36.9394C36.9149 36.3741 38.1005 35.4219 38.9465 34.1589C39.7846 32.9103 40.2266 31.4531 40.2266 29.9488V16.9027C40.2266 15.7328 39.9643 14.6114 39.4711 13.5975V13.5949Z" fill="#F3744B"/>
<path d="M37.3124 39.3041L35.5549 36.9367L33.1403 33.6854L28.5013 27.4411C30.1828 25.7846 31.2281 23.488 31.2281 20.9501C31.2281 15.9216 27.1386 11.8361 22.1141 11.8361C17.0895 11.8361 12.9961 15.9229 12.9961 20.9501C12.9961 25.9774 17.0855 30.0642 22.1141 30.0642C23.2302 30.0642 24.3004 29.8583 25.2907 29.4884L34.263 41.5705C34.6355 42.0728 35.2074 42.3391 35.7897 42.3391C36.1845 42.3391 36.5792 42.2158 36.9216 41.9626C37.7649 41.337 37.9393 40.1488 37.3137 39.3054L37.3124 39.3041ZM22.1141 26.262C19.1814 26.262 16.7983 23.8789 16.7983 20.9501C16.7983 18.0214 19.1814 15.6344 22.1141 15.6344C25.0467 15.6344 27.4272 18.0175 27.4272 20.9501C27.4272 23.8828 25.0441 26.262 22.1141 26.262Z" fill="#F3744B"/>
<path d="M57.4964 30.4669H52.9453V9.35077H57.4964V30.4669ZM66.7665 21.8093H57.1593V17.6765H66.7665V21.8093ZM66.4295 9.35077H70.9793V30.4669H66.4295V9.35077Z" fill="#15284F"/>
<path d="M82.1043 30.7082C80.4937 30.7082 79.0655 30.3462 77.8208 29.6222C76.5748 28.8982 75.5925 27.908 74.8711 26.6515C74.1497 25.395 73.7891 23.9615 73.7891 22.3535C73.7891 20.7456 74.1497 19.2819 74.8711 18.0254C75.5911 16.7689 76.5748 15.7839 77.8208 15.0691C79.0655 14.3556 80.4937 13.9989 82.1043 13.9989C83.7149 13.9989 85.1196 14.3556 86.3735 15.0691C87.6273 15.7826 88.611 16.7637 89.3232 18.0097C90.034 19.2569 90.3908 20.7049 90.3908 22.3535C90.3908 24.0022 90.0353 25.395 89.3232 26.6515C88.611 27.908 87.6286 28.8982 86.3735 29.6222C85.1183 30.3462 83.6953 30.7082 82.1043 30.7082ZM82.1043 26.8469C82.8349 26.8469 83.4893 26.6659 84.0704 26.304C84.6501 25.942 85.1091 25.4239 85.4462 24.7511C85.7833 24.0769 85.9525 23.2782 85.9525 22.3535C85.9525 21.4289 85.7833 20.6039 85.4462 19.9403C85.1091 19.2766 84.6501 18.7638 84.0704 18.4018C83.4893 18.0398 82.8349 17.8588 82.1043 17.8588C81.3738 17.8588 80.718 18.0398 80.1383 18.4018C79.5573 18.7638 79.0943 19.2766 78.7481 19.9403C78.4018 20.6039 78.2287 21.4079 78.2287 22.3535C78.2287 23.2992 78.4018 24.0782 78.7481 24.7511C79.0943 25.4252 79.5573 25.9433 80.1383 26.304C80.718 26.6659 81.3738 26.8469 82.1043 26.8469Z" fill="#15284F"/>
<path d="M99.2641 30.7082C98.009 30.7082 96.8902 30.4472 95.9078 29.9239C94.9242 29.4005 94.1608 28.6018 93.6192 27.5263C93.0762 26.4509 92.8047 25.0776 92.8047 23.4093V14.2389H97.1866V22.7155C97.1866 24.0625 97.4528 25.0527 97.9867 25.6862C98.5205 26.3197 99.2733 26.6358 100.248 26.6358C100.922 26.6358 101.521 26.4797 102.046 26.1676C102.571 25.8567 102.982 25.3727 103.281 24.7196C103.58 24.0664 103.731 23.2467 103.731 22.2617V14.2376H108.113V30.4668H103.956V26.0023L104.714 27.2994C104.207 28.4261 103.464 29.2746 102.48 29.8478C101.496 30.4209 100.425 30.7082 99.2641 30.7082Z" fill="#15284F"/>
<path d="M116.849 30.7082C115.557 30.7082 114.317 30.5416 113.127 30.2098C111.938 29.878 110.997 29.4609 110.305 28.9586L111.766 25.58C112.458 26.043 113.278 26.4194 114.224 26.7106C115.169 27.0017 116.1 27.1486 117.019 27.1486C118.03 27.1486 118.746 27.0175 119.167 26.7565C119.588 26.4955 119.799 26.1335 119.799 25.6705C119.799 25.2888 119.635 25.0016 119.307 24.8101C118.979 24.6199 118.544 24.473 118.001 24.3734C117.458 24.2724 116.864 24.1727 116.217 24.0717C115.571 23.9707 114.92 23.8356 114.266 23.6638C113.61 23.4933 113.01 23.2362 112.467 22.8952C111.924 22.5529 111.489 22.0913 111.161 21.5076C110.833 20.924 110.669 20.1698 110.669 19.2452C110.669 18.2195 110.945 17.3146 111.498 16.5302C112.05 15.7459 112.85 15.1282 113.9 14.6757C114.948 14.2232 116.203 13.9976 117.664 13.9976C118.693 13.9976 119.743 14.1183 120.81 14.3596C121.878 14.6009 122.767 14.9524 123.479 15.4154L122.018 18.7638C121.288 18.3008 120.553 17.9848 119.813 17.8143C119.074 17.6438 118.358 17.5572 117.665 17.5572C116.691 17.5572 115.98 17.6975 115.53 17.9795C115.08 18.2615 114.856 18.6235 114.856 19.0655C114.856 19.4681 115.02 19.7698 115.348 19.9705C115.676 20.1711 116.111 20.3325 116.654 20.4531C117.197 20.5738 117.791 20.6787 118.438 20.7692C119.084 20.8597 119.733 20.9961 120.389 21.1771C121.045 21.3581 121.639 21.6138 122.173 21.9457C122.707 22.2775 123.142 22.73 123.479 23.3031C123.816 23.8763 123.986 24.6252 123.986 25.5498C123.986 26.5558 123.705 27.445 123.142 28.2189C122.581 28.9927 121.77 29.6012 120.712 30.0432C119.653 30.4852 118.367 30.7069 116.849 30.7069V30.7082Z" fill="#15284F"/>
<path d="M128.451 11.9752C127.645 11.9752 126.99 11.7234 126.485 11.221C125.978 10.7187 125.727 10.0944 125.727 9.35075C125.727 8.60709 125.98 7.98279 126.485 7.48046C126.991 6.97814 127.645 6.72632 128.451 6.72632C129.256 6.72632 129.912 6.9624 130.417 7.43456C130.922 7.90672 131.175 8.51529 131.175 9.25894C131.175 10.0433 130.927 10.6912 130.43 11.204C129.934 11.7168 129.273 11.9726 128.449 11.9726L128.451 11.9752ZM126.26 30.4669V14.2376H130.642V30.4669H126.26Z" fill="#15284F"/>
<path d="M138.395 30.4668L132.047 14.2376H136.569L141.849 28.2044H139.603L145.08 14.2376H149.294L142.917 30.4668H138.395Z" fill="#15284F"/>
<path d="M152.861 11.9752C152.056 11.9752 151.4 11.7234 150.895 11.221C150.389 10.7187 150.137 10.0944 150.137 9.35075C150.137 8.60709 150.39 7.98279 150.895 7.48046C151.401 6.97814 152.056 6.72632 152.861 6.72632C153.666 6.72632 154.322 6.9624 154.827 7.43456C155.332 7.90672 155.585 8.51529 155.585 9.25894C155.585 10.0433 155.337 10.6912 154.84 11.204C154.344 11.7168 153.683 11.9726 152.86 11.9726L152.861 11.9752ZM150.671 30.4669V14.2376H155.052V30.4669H150.671Z" fill="#15284F"/>
<path d="M156.906 18.2195V14.5996H167.383V18.2195H156.906ZM164.883 30.7082C163.103 30.7082 161.718 30.2203 160.726 29.2458C159.733 28.27 159.237 26.8181 159.237 24.8875V10.6492H163.619V24.8271C163.619 25.5104 163.788 26.039 164.125 26.4102C164.462 26.7827 164.921 26.9689 165.501 26.9689C166.193 26.9689 166.784 26.7682 167.27 26.3656L168.451 29.6838C168.001 30.0261 167.463 30.2819 166.836 30.4524C166.208 30.6229 165.559 30.7095 164.884 30.7095L164.883 30.7082Z" fill="#15284F"/>
<path d="M172.128 36.5604C171.341 36.5604 170.565 36.4292 169.796 36.1682C169.028 35.9072 168.401 35.5452 167.914 35.0822L169.515 31.7338C169.853 32.0551 170.241 32.307 170.681 32.488C171.121 32.669 171.556 32.7595 171.988 32.7595C172.606 32.7595 173.097 32.6034 173.462 32.2925C173.827 31.9804 174.16 31.4623 174.459 30.7397L175.246 28.7487L175.583 28.2359L181.003 14.2389H185.217L178.392 31.4636C177.906 32.7713 177.348 33.7956 176.721 34.5405C176.093 35.2842 175.4 35.8075 174.642 36.1092C173.884 36.4108 173.046 36.5617 172.128 36.5617V36.5604ZM174.712 31.1003L167.97 14.2376H172.493L177.718 27.8122L174.712 31.1003Z" fill="#15284F"/>
<path d="M185.247 30.7619C184.798 30.7619 184.413 30.6071 184.093 30.2989C183.773 29.9894 183.613 29.5933 183.613 29.1107C183.613 28.628 183.773 28.2372 184.093 27.9394C184.413 27.6417 184.799 27.4922 185.247 27.4922C185.696 27.4922 186.096 27.6417 186.411 27.9394C186.726 28.2372 186.883 28.628 186.883 29.1107C186.883 29.5933 186.726 29.9907 186.411 30.2989C186.096 30.6085 185.708 30.7619 185.247 30.7619Z" fill="#F3744B"/>
<path d="M192.749 30.7619C191.942 30.7619 191.224 30.598 190.594 30.2688C189.963 29.9396 189.47 29.4831 189.113 28.8995C188.756 28.3158 188.578 27.6522 188.578 26.9112C188.578 26.1701 188.756 25.4947 189.113 24.9163C189.47 24.3366 189.963 23.8828 190.594 23.5536C191.225 23.2244 191.942 23.0604 192.749 23.0604C193.555 23.0604 194.223 23.2257 194.807 23.5536C195.39 23.8828 195.822 24.3536 196.1 24.9648L194.417 25.8685C194.223 25.5157 193.979 25.2573 193.687 25.0894C193.394 24.9228 193.077 24.8389 192.734 24.8389C192.363 24.8389 192.03 24.9228 191.734 25.0894C191.437 25.256 191.203 25.4921 191.032 25.799C190.86 26.1046 190.775 26.4757 190.775 26.9112C190.775 27.3466 190.86 27.7178 191.032 28.0234C191.204 28.329 191.437 28.565 191.734 28.7329C192.03 28.8995 192.365 28.9834 192.734 28.9834C193.077 28.9834 193.395 28.9021 193.687 28.7395C193.979 28.5768 194.222 28.3158 194.417 27.9539L196.1 28.8719C195.822 29.4753 195.39 29.9409 194.807 30.2701C194.223 30.5993 193.537 30.7632 192.749 30.7632V30.7619Z" fill="#15284F"/>
<path d="M200.815 30.7619C200.017 30.7619 199.311 30.5954 198.694 30.2609C198.078 29.9265 197.591 29.47 197.234 28.8916C196.878 28.3119 196.699 27.6522 196.699 26.9099C196.699 26.1675 196.878 25.4934 197.234 24.915C197.591 24.3353 198.078 23.8815 198.694 23.5523C199.311 23.2231 200.017 23.0591 200.815 23.0591C201.612 23.0591 202.307 23.2244 202.929 23.5523C203.549 23.8815 204.037 24.334 204.389 24.9084C204.742 25.4829 204.917 26.1505 204.917 26.9112C204.917 27.6719 204.742 28.3132 204.389 28.893C204.036 29.4727 203.549 29.9291 202.929 30.2622C202.307 30.5954 201.603 30.7632 200.815 30.7632V30.7619ZM200.815 28.9821C201.177 28.9821 201.501 28.8982 201.788 28.7316C202.075 28.5651 202.302 28.3264 202.47 28.0155C202.637 27.7047 202.721 27.3361 202.721 26.9099C202.721 26.4836 202.637 26.1033 202.47 25.7977C202.304 25.4921 202.075 25.256 201.788 25.0881C201.501 24.9216 201.177 24.8376 200.815 24.8376C200.453 24.8376 200.129 24.9216 199.842 25.0881C199.554 25.2547 199.325 25.4908 199.153 25.7977C198.981 26.1033 198.896 26.4744 198.896 26.9099C198.896 27.3453 198.981 27.7047 199.153 28.0155C199.325 28.3264 199.554 28.5651 199.842 28.7316C200.129 28.8982 200.454 28.9821 200.815 28.9821Z" fill="#15284F"/>
<path d="M215.94 23.0591C216.533 23.0591 217.059 23.1772 217.518 23.4133C217.977 23.6493 218.339 24.0113 218.603 24.4979C218.866 24.9845 218.999 25.6088 218.999 26.3682V30.6504H216.83V26.7013C216.83 26.0993 216.705 25.6534 216.454 25.3662C216.204 25.0789 215.851 24.9347 215.397 24.9347C215.083 24.9347 214.799 25.0068 214.549 25.1498C214.298 25.294 214.104 25.5091 213.965 25.7964C213.826 26.0836 213.757 26.4495 213.757 26.8955V30.6504H211.587V26.7013C211.587 26.0993 211.464 25.6534 211.219 25.3662C210.973 25.0789 210.623 24.9347 210.169 24.9347C209.855 24.9347 209.571 25.0068 209.321 25.1498C209.07 25.294 208.876 25.5091 208.737 25.7964C208.598 26.0836 208.529 26.4495 208.529 26.8955V30.6504H206.359V23.1693H208.432V25.214L208.042 24.616C208.302 24.1058 208.67 23.7189 209.148 23.4552C209.625 23.1916 210.169 23.0591 210.782 23.0591C211.468 23.0591 212.069 23.2323 212.583 23.5811C213.097 23.9287 213.438 24.4599 213.604 25.1734L212.84 24.9648C213.09 24.3812 213.49 23.9169 214.042 23.5746C214.593 23.2323 215.227 23.0605 215.94 23.0605V23.0591Z" fill="#15284F"/>
</svg>
