<svg width="20" height="21" viewBox="0 0 20 21" fill="none" xmlns="http://www.w3.org/2000/svg">
<g clip-path="url(#clip0_2424_12563)">
<path d="M17.5 8.83301C17.5 14.6663 10 19.6663 10 19.6663C10 19.6663 2.5 14.6663 2.5 8.83301C2.5 6.84388 3.29018 4.93623 4.6967 3.52971C6.10322 2.12318 8.01088 1.33301 10 1.33301C11.9891 1.33301 13.8968 2.12318 15.3033 3.52971C16.7098 4.93623 17.5 6.84388 17.5 8.83301Z" stroke="#FF7348" stroke-width="2" stroke-linecap="round" stroke-linejoin="round"/>
<path d="M10 11.333C11.3807 11.333 12.5 10.2137 12.5 8.83301C12.5 7.4523 11.3807 6.33301 10 6.33301C8.61929 6.33301 7.5 7.4523 7.5 8.83301C7.5 10.2137 8.61929 11.333 10 11.333Z" stroke="#FF7348" stroke-width="2" stroke-linecap="round" stroke-linejoin="round"/>
</g>
<defs>
<clipPath id="clip0_2424_12563">
<rect width="20" height="20" fill="white" transform="translate(0 0.5)"/>
</clipPath>
</defs>
</svg>
