<svg width="12" height="12" viewBox="0 0 12 12" fill="none" xmlns="http://www.w3.org/2000/svg">
<path d="M0.323536 5.21942C0.323811 5.21915 0.324085 5.21887 0.32436 5.2186L5.21941 0.32373C5.42806 0.11499 5.70546 0 6.00054 0C6.29561 0 6.57302 0.114899 6.78176 0.323639L11.6742 5.21603C11.6759 5.21768 11.6775 5.21942 11.6792 5.22107C12.1077 5.65201 12.1069 6.3512 11.6771 6.78104C11.4807 6.97751 11.2213 7.09131 10.944 7.10321C10.9328 7.10431 10.9214 7.10486 10.91 7.10486H10.7149V10.7072C10.7149 11.42 10.1349 12 9.42186 12H7.50676C7.31267 12 7.1552 11.8426 7.1552 11.6484V8.82422C7.1552 8.49893 6.89061 8.23434 6.56533 8.23434H5.43575C5.11046 8.23434 4.84587 8.49893 4.84587 8.82422V11.6484C4.84587 11.8426 4.6885 12 4.49431 12H2.57921C1.8662 12 1.28621 11.42 1.28621 10.7072V7.10486H1.1053C0.810322 7.10486 0.532917 6.98996 0.324085 6.78122C-0.106213 6.35065 -0.106396 5.65027 0.323536 5.21942Z" fill="white"/>
</svg>
