<svg width="30" height="31" viewBox="0 0 30 31" fill="none" xmlns="http://www.w3.org/2000/svg">
<path fill-rule="evenodd" clip-rule="evenodd" d="M21.751 5.37451C20.5083 5.37451 19.501 6.38187 19.501 7.62451C19.501 8.01701 19.6015 8.38603 19.7781 8.70725C19.7886 8.72322 19.7987 8.73955 19.8084 8.75621C19.8181 8.77279 19.8273 8.78952 19.836 8.80637C20.2325 9.44742 20.9419 9.87451 21.751 9.87451C22.9936 9.87451 24.001 8.86715 24.001 7.62451C24.001 6.38187 22.9936 5.37451 21.751 5.37451ZM18.5536 10.791C19.3691 11.6145 20.5005 12.1245 21.751 12.1245C24.2363 12.1245 26.251 10.1098 26.251 7.62451C26.251 5.13923 24.2363 3.12451 21.751 3.12451C19.2657 3.12451 17.251 5.13923 17.251 7.62451C17.251 8.04856 17.3096 8.45891 17.4193 8.84789L11.4473 12.333C10.6318 11.5096 9.50048 10.9995 8.25 10.9995C5.76472 10.9995 3.75 13.0142 3.75 15.4995C3.75 17.9848 5.76472 19.9995 8.25 19.9995C9.5009 19.9995 10.6326 19.4891 11.4482 18.6652L17.4207 22.1455C17.3101 22.536 17.251 22.9481 17.251 23.374C17.251 25.8593 19.2657 27.874 21.751 27.874C24.2363 27.874 26.251 25.8593 26.251 23.374C26.251 20.8887 24.2363 18.874 21.751 18.874C20.5024 18.874 19.3726 19.3825 18.5573 20.2037L12.582 16.7218C12.6915 16.3331 12.75 15.9232 12.75 15.4995C12.75 15.0755 12.6913 14.6651 12.5817 14.2761L18.5536 10.791ZM10.1652 14.318C10.1739 14.3347 10.183 14.3513 10.1926 14.3678C10.2023 14.3843 10.2123 14.4005 10.2226 14.4164C10.3994 14.7377 10.5 15.1069 10.5 15.4995C10.5 15.8907 10.4002 16.2585 10.2246 16.579C10.2134 16.596 10.2026 16.6135 10.1922 16.6313C10.1821 16.6487 10.1725 16.6663 10.1633 16.684C9.76656 17.3236 9.05802 17.7495 8.25 17.7495C7.00736 17.7495 6 16.7422 6 15.4995C6 14.2569 7.00736 13.2495 8.25 13.2495C9.05927 13.2495 9.76875 13.6768 10.1652 14.318ZM19.501 23.374C19.501 23.0074 19.5887 22.6612 19.7442 22.3554C19.7714 22.3194 19.7968 22.2815 19.82 22.2416C19.8423 22.2034 19.8621 22.1643 19.8794 22.1247C20.283 21.5213 20.9706 21.124 21.751 21.124C22.9936 21.124 24.001 22.1314 24.001 23.374C24.001 24.6167 22.9936 25.624 21.751 25.624C20.5083 25.624 19.501 24.6167 19.501 23.374Z" fill="#FF7348"/>
</svg>
